<svg width="300" height="53" viewBox="0 0 300 53" fill="none" xmlns="http://www.w3.org/2000/svg">
<path d="M230.812 7.83457C241.733 7.83457 250.799 15.7225 252.65 26.1089C252.875 24.8376 253.003 23.5319 253.003 22.1919C253.003 9.93541 243.068 0.000610352 230.812 0.000610352C218.555 0.000610352 208.621 9.93541 208.621 22.1919C208.621 23.527 208.743 24.8376 208.974 26.1089C210.824 15.7225 219.895 7.83457 230.812 7.83457Z" fill="white"/>
<path d="M230.812 44.3835C219.89 44.3835 210.824 36.4955 208.974 26.1091C208.748 27.3804 208.62 28.6861 208.62 30.0261C208.62 42.2826 218.555 52.2174 230.812 52.2174C243.068 52.2174 253.003 42.2826 253.003 30.0261C253.003 28.691 252.88 27.3804 252.65 26.1091C250.799 36.4955 241.728 44.3835 230.812 44.3835Z" fill="white"/>
<path d="M39.16 7.8982C35.0908 3.06824 28.9994 0.000427246 22.1913 0.000427246C9.93479 0.000427246 0 9.93522 0 22.1917C0 23.5268 0.122713 24.8374 0.353412 26.1087C2.20391 15.7223 11.2748 7.83438 22.1913 7.83438C28.9994 7.83438 35.0908 10.9022 39.16 15.7322V7.8982Z" fill="white"/>
<path d="M39.16 36.4855C35.0908 41.3155 28.9994 44.3833 22.1913 44.3833C11.2699 44.3833 2.20391 36.4953 0.353412 26.1089C0.127621 27.3802 0 28.6859 0 30.0259C0 42.2824 9.93479 52.2172 22.1913 52.2172C28.9994 52.2172 35.0908 49.1494 39.16 44.3195V36.4855Z" fill="white"/>
<path d="M69.1855 7.83457C80.1069 7.83457 89.1729 15.7225 91.0234 26.1089C91.2492 24.8376 91.3768 23.5319 91.3768 22.1919C91.3768 9.93541 81.442 0.000610352 69.1855 0.000610352C56.929 0.000610352 46.9942 9.93541 46.9942 22.1919C46.9942 23.527 47.1169 24.8376 47.3476 26.1089C49.1981 15.7225 58.269 7.83457 69.1855 7.83457Z" fill="white"/>
<path d="M69.1855 44.3835C58.2641 44.3835 49.1981 36.4955 47.3476 26.1091C47.1218 27.3804 46.9942 28.6861 46.9942 30.0261C46.9942 42.2826 56.929 52.2174 69.1855 52.2174C81.442 52.2174 91.3768 42.2826 91.3768 30.0261C91.3768 28.691 91.2541 27.3804 91.0234 26.1091C89.1729 36.4955 80.102 44.3835 69.1855 44.3835Z" fill="white"/>
<path d="M137.448 16.846C137.448 10.4895 129.369 6.86698 118.3 6.86698C107.231 6.86698 98.4892 8.98745 98.4892 16.3796C98.4892 23.7718 105.287 26.2604 116.734 28.4791C122.875 29.6669 131.617 30.4474 131.882 39.2287C132.181 49.1193 125.937 52.1822 118.678 52.1822C105.881 52.1822 104.502 41.2559 104.502 33.9177L96.4031 33.9324C96.4031 41.8155 105.371 45.217 118.432 45.217C130.34 45.217 139.097 43.504 138.327 34.4527C137.924 29.7209 134.945 25.4751 122.055 22.8392C116.528 21.7103 106.883 20.2917 105.454 14.8875C103.574 7.78487 106.161 0 117.554 0C128.946 0 129.766 8.61931 129.766 16.846H137.448Z" fill="white"/>
<path d="M299.074 16.846C299.074 10.4895 290.995 6.86698 279.926 6.86698C268.858 6.86698 260.115 8.98745 260.115 16.3796C260.115 23.7718 266.914 26.2604 278.36 28.4791C284.501 29.6669 293.243 30.4474 293.508 39.2287C293.807 49.1193 287.564 52.1822 280.304 52.1822C267.508 52.1822 266.128 41.2559 266.128 33.9177L258.029 33.9324C258.029 41.8155 266.997 45.217 280.059 45.217C291.967 45.217 300.723 43.504 299.953 34.4527C299.55 29.7209 296.571 25.4751 283.681 22.8392C278.154 21.7103 268.509 20.2917 267.081 14.8875C265.201 7.78487 267.787 0 279.18 0C290.573 0 291.392 8.61931 291.392 16.846H299.074Z" fill="white"/>
<path d="M177.412 18.2755H169.579V46.9754H177.412V18.2755Z" fill="white"/>
<path d="M200.787 19.5315V52.2172H192.953V7.77076C192.953 3.48073 189.473 0.000610352 185.183 0.000610352C180.893 0.000610352 177.413 3.48073 177.413 7.77076V19.5266C177.413 13.0719 182.645 7.83948 189.1 7.83948C195.554 7.83948 200.787 13.0719 200.787 19.5266V19.5315Z" fill="white"/>
<path d="M146.204 19.5315V52.2172H154.038V20.1794V7.77076C154.038 3.48073 157.518 0.000610352 161.808 0.000610352C166.098 0.000610352 169.578 3.48073 169.578 7.77076V19.5266C169.578 13.0719 164.346 7.83948 157.891 7.83948C151.437 7.83948 146.204 13.0719 146.204 19.5266V19.5315Z" fill="white"/>
</svg>
