<svg width="1280" height="312" viewBox="0 0 1280 312" fill="none" xmlns="http://www.w3.org/2000/svg">
<path d="M1206.89 311.674C1635.92 311.674 1983.72 -36.1274 1983.72 -465.163C1983.72 -894.198 1635.92 -1242 1206.89 -1242C777.852 -1242 430.05 -894.198 430.05 -465.163C430.05 -36.1274 777.852 311.674 1206.89 311.674Z" fill="white" fill-opacity="0.06"/>
<path d="M923.28 311.674C1352.31 311.674 1700.12 -36.1274 1700.12 -465.163C1700.12 -894.198 1352.31 -1242 923.28 -1242C494.244 -1242 146.442 -894.198 146.442 -465.163C146.442 -36.1274 494.244 311.674 923.28 311.674Z" fill="white" fill-opacity="0.06"/>
<path d="M1490.82 311.674C1919.86 311.674 2267.66 -36.1274 2267.66 -465.163C2267.66 -894.198 1919.86 -1242 1490.82 -1242C1061.79 -1242 713.986 -894.198 713.986 -465.163C713.986 -36.1274 1061.79 311.674 1490.82 311.674Z" fill="white" fill-opacity="0.06"/>
<path d="M1774.69 311.674C2203.73 311.674 2551.53 -36.1274 2551.53 -465.163C2551.53 -894.198 2203.73 -1242 1774.69 -1242C1345.66 -1242 997.856 -894.198 997.856 -465.163C997.856 -36.1274 1345.66 311.674 1774.69 311.674Z" fill="white" fill-opacity="0.06"/>
<path d="M639.673 311.674C1068.71 311.674 1416.51 -36.1274 1416.51 -465.163C1416.51 -894.198 1068.71 -1242 639.673 -1242C210.638 -1242 -137.164 -894.198 -137.164 -465.163C-137.164 -36.1274 210.638 311.674 639.673 311.674Z" fill="white" fill-opacity="0.06"/>
<path d="M356.065 311.674C785.101 311.674 1132.9 -36.1274 1132.9 -465.163C1132.9 -894.198 785.101 -1242 356.065 -1242C-72.9699 -1242 -420.772 -894.198 -420.772 -465.163C-420.772 -36.1274 -72.9699 311.674 356.065 311.674Z" fill="white" fill-opacity="0.06"/>
<path d="M72.458 311.674C501.493 311.674 849.295 -36.1274 849.295 -465.163C849.295 -894.198 501.493 -1242 72.458 -1242C-356.577 -1242 -704.379 -894.198 -704.379 -465.163C-704.379 -36.1274 -356.577 311.674 72.458 311.674Z" fill="white" fill-opacity="0.06"/>
<path d="M-211.215 311.674C217.82 311.674 565.622 -36.1274 565.622 -465.163C565.622 -894.198 217.82 -1242 -211.215 -1242C-640.25 -1242 -988.052 -894.198 -988.052 -465.163C-988.052 -36.1274 -640.25 311.674 -211.215 311.674Z" fill="white" fill-opacity="0.06"/>
<path d="M-494.888 311.674C-65.8525 311.674 281.949 -36.1274 281.949 -465.163C281.949 -894.198 -65.8525 -1242 -494.888 -1242C-923.923 -1242 -1271.73 -894.198 -1271.73 -465.163C-1271.73 -36.1274 -923.923 311.674 -494.888 311.674Z" fill="white" fill-opacity="0.06"/>
</svg>
