<svg width="1280" height="343" viewBox="0 0 1280 343" fill="none" xmlns="http://www.w3.org/2000/svg">
<path d="M1206.89 1553.67C1635.92 1553.67 1983.72 1205.87 1983.72 776.837C1983.72 347.802 1635.92 0 1206.89 0C777.852 0 430.05 347.802 430.05 776.837C430.05 1205.87 777.852 1553.67 1206.89 1553.67Z" fill="white" fill-opacity="0.06"/>
<path d="M923.28 1553.67C1352.31 1553.67 1700.12 1205.87 1700.12 776.837C1700.12 347.802 1352.31 0 923.28 0C494.244 0 146.442 347.802 146.442 776.837C146.442 1205.87 494.244 1553.67 923.28 1553.67Z" fill="white" fill-opacity="0.06"/>
<path d="M1490.82 1553.67C1919.86 1553.67 2267.66 1205.87 2267.66 776.837C2267.66 347.802 1919.86 0 1490.82 0C1061.79 0 713.986 347.802 713.986 776.837C713.986 1205.87 1061.79 1553.67 1490.82 1553.67Z" fill="white" fill-opacity="0.06"/>
<path d="M1774.69 1553.67C2203.73 1553.67 2551.53 1205.87 2551.53 776.837C2551.53 347.802 2203.73 0 1774.69 0C1345.66 0 997.856 347.802 997.856 776.837C997.856 1205.87 1345.66 1553.67 1774.69 1553.67Z" fill="white" fill-opacity="0.06"/>
<path d="M639.673 1553.67C1068.71 1553.67 1416.51 1205.87 1416.51 776.837C1416.51 347.802 1068.71 0 639.673 0C210.638 0 -137.164 347.802 -137.164 776.837C-137.164 1205.87 210.638 1553.67 639.673 1553.67Z" fill="white" fill-opacity="0.06"/>
<path d="M356.065 1553.67C785.101 1553.67 1132.9 1205.87 1132.9 776.837C1132.9 347.802 785.101 0 356.065 0C-72.9699 0 -420.772 347.802 -420.772 776.837C-420.772 1205.87 -72.9699 1553.67 356.065 1553.67Z" fill="white" fill-opacity="0.06"/>
<path d="M72.458 1553.67C501.493 1553.67 849.295 1205.87 849.295 776.837C849.295 347.802 501.493 0 72.458 0C-356.577 0 -704.379 347.802 -704.379 776.837C-704.379 1205.87 -356.577 1553.67 72.458 1553.67Z" fill="white" fill-opacity="0.06"/>
<path d="M-211.215 1553.67C217.82 1553.67 565.622 1205.87 565.622 776.837C565.622 347.802 217.82 0 -211.215 0C-640.25 0 -988.052 347.802 -988.052 776.837C-988.052 1205.87 -640.25 1553.67 -211.215 1553.67Z" fill="white" fill-opacity="0.06"/>
<path d="M-494.888 1553.67C-65.8525 1553.67 281.949 1205.87 281.949 776.837C281.949 347.802 -65.8525 0 -494.888 0C-923.923 0 -1271.73 347.802 -1271.73 776.837C-1271.73 1205.87 -923.923 1553.67 -494.888 1553.67Z" fill="white" fill-opacity="0.06"/>
</svg>
